<?xml version="1.0" encoding="utf-8"?>
<!-- Generator: Adobe Illustrator 22.0.1, SVG Export Plug-In . SVG Version: 6.00 Build 0)  -->
<svg version="1.1" id="Layer_1" xmlns="http://www.w3.org/2000/svg" xmlns:xlink="http://www.w3.org/1999/xlink" x="0px" y="0px"
	 viewBox="0 0 64 64" style="enable-background:new 0 0 64 64;" xml:space="preserve">
<path d="M59.3,0H4.7C2.1,0,0,2.1,0,4.6v54.8C0,61.9,2.1,64,4.7,64h54.5c2.6,0,4.7-2.1,4.7-4.6V4.6C64,2.1,61.9,0,59.3,0z M19,54.5
	H9.5V24H19V54.5z M14.2,19.8c-3,0-5.5-2.5-5.5-5.5s2.5-5.5,5.5-5.5c3,0,5.5,2.5,5.5,5.5C19.7,17.4,17.3,19.8,14.2,19.8z M54.5,54.5
	H45V39.7c0-3.5-0.1-8.1-4.9-8.1c-4.9,0-5.7,3.9-5.7,7.8v15.1h-9.5V24H34v4.2h0.1c1.3-2.4,4.4-4.9,9-4.9c9.6,0,11.4,6.3,11.4,14.6
	L54.5,54.5L54.5,54.5z"/>
</svg>
