<?xml version="1.0" encoding="utf-8"?>
<!-- Generator: Adobe Illustrator 22.0.1, SVG Export Plug-In . SVG Version: 6.00 Build 0)  -->
<svg version="1.1" id="Layer_1" xmlns="http://www.w3.org/2000/svg" xmlns:xlink="http://www.w3.org/1999/xlink" x="0px" y="0px"
	 viewBox="0 0 64 64" style="enable-background:new 0 0 64 64;" xml:space="preserve">
<path d="M58.7,2.7H5.3C2.4,2.7,0,5.1,0,8v34.7C0,45.6,2.4,48,5.3,48h17.3l-2.4,8H16c-1.6,0-2.7,1.1-2.7,2.7c0,1.6,1.1,2.7,2.7,2.7
	h32c1.6,0,2.7-1.1,2.7-2.7c0-1.6-1.1-2.7-2.7-2.7h-4.3l-2.4-8h17.3c2.9,0,5.3-2.4,5.3-5.3V8C64,5.1,61.6,2.7,58.7,2.7z M38.1,56
	H25.9l2.4-8h7.5L38.1,56z M5.3,42.7V8h53.3v34.7H5.3z"/>
</svg>
